<?xml version="1.0" standalone="no"?>
<!DOCTYPE svg PUBLIC "-//W3C//DTD SVG 20010904//EN"
 "http://www.w3.org/TR/2001/REC-SVG-20010904/DTD/svg10.dtd">
<svg version="1.0" xmlns="http://www.w3.org/2000/svg"
 width="3122.000000pt" height="3122.000000pt" viewBox="0 0 3122.000000 3122.000000"
 preserveAspectRatio="xMidYMid meet">
<metadata>
Created by potrace 1.14, written by Peter Selinger 2001-2017
</metadata>
<g transform="translate(0.000000,3122.000000) scale(0.100000,-0.100000)"
fill="#000000" stroke="none">
<path d="M11798 27224 c-2 -1 -26 -6 -53 -9 -28 -4 -53 -9 -56 -11 -4 -2 -24
-6 -45 -10 -68 -10 -214 -63 -315 -113 -602 -300 -1041 -1045 -1253 -2126 -30
-151 -26 -127 -71 -420 -3 -22 -8 -58 -11 -80 -2 -22 -6 -56 -8 -75 -4 -32 -9
-76 -21 -180 -2 -19 -7 -73 -10 -120 -4 -47 -8 -101 -10 -120 -2 -19 -7 -80
-11 -135 -4 -55 -8 -116 -9 -135 -11 -158 -31 -596 -41 -895 -4 -142 -10 -941
-19 -2610 -2 -506 -7 -978 -9 -1050 -3 -71 -8 -197 -11 -280 -11 -278 -25
-526 -41 -715 -3 -36 -7 -90 -9 -120 -3 -30 -7 -75 -10 -100 -2 -25 -7 -72
-10 -105 -3 -33 -8 -76 -10 -95 -5 -35 -8 -59 -20 -160 -3 -30 -8 -66 -10 -80
-2 -14 -7 -45 -10 -70 -3 -25 -8 -52 -10 -60 -2 -8 -7 -40 -10 -70 -3 -30 -10
-74 -16 -98 -5 -23 -12 -59 -15 -78 -6 -42 -5 -36 -33 -169 -18 -81 -51 -218
-85 -347 -24 -92 -103 -317 -137 -395 -11 -23 -19 -45 -19 -48 0 -15 -100
-210 -153 -299 -54 -89 -114 -181 -142 -213 -140 -163 -218 -236 -355 -329
l-90 -61 108 -104 c274 -267 548 -413 922 -494 139 -29 391 -40 555 -22 94 10
247 42 331 69 38 12 74 22 80 24 26 5 214 89 284 126 78 42 252 155 286 185
10 10 39 34 64 54 100 81 265 255 345 364 16 22 32 42 35 45 8 7 67 98 120
185 140 228 282 593 336 860 17 85 36 186 40 214 2 19 6 46 8 60 42 266 52
745 22 1011 -3 19 -7 67 -11 105 -3 39 -8 79 -10 90 -2 11 -7 40 -10 65 -6 52
-41 273 -49 310 -3 14 -15 70 -26 125 -49 248 -208 813 -270 960 -14 33 -161
459 -263 760 -52 154 -97 287 -100 295 -3 8 -24 76 -47 150 -23 74 -50 160
-60 190 -10 30 -35 109 -55 175 -20 66 -48 156 -62 200 -13 44 -26 87 -28 95
-7 30 -66 236 -81 285 -9 28 -17 57 -19 65 -2 8 -14 56 -28 105 -31 109 -154
602 -162 646 -3 17 -14 68 -25 114 -11 46 -22 98 -25 117 -3 18 -17 87 -30
153 -13 66 -26 137 -29 159 -4 21 -8 41 -10 45 -2 3 -7 30 -11 60 -4 30 -9 63
-11 75 -9 40 -52 357 -59 435 -3 25 -7 62 -9 81 -22 174 -31 357 -31 665 0
264 4 376 20 530 2 22 7 67 10 100 3 33 8 69 10 80 2 11 7 43 10 70 3 28 10
68 15 90 5 22 11 57 14 79 4 21 8 41 11 45 2 4 6 21 9 37 12 64 19 93 52 205
201 694 592 1128 1018 1129 275 1 524 -223 634 -570 34 -105 52 -189 68 -315
3 -22 7 -51 10 -65 25 -151 25 -611 0 -890 -13 -133 -17 -176 -21 -190 -2 -8
-6 -46 -10 -85 -3 -38 -8 -77 -10 -85 -2 -8 -6 -40 -10 -71 -3 -31 -7 -66 -9
-76 -3 -11 -7 -44 -11 -74 -3 -30 -8 -61 -10 -69 -2 -8 -7 -35 -10 -60 -3 -25
-8 -56 -10 -70 -2 -14 -14 -86 -25 -160 -29 -182 -29 -186 -34 -217 -3 -16 -7
-48 -11 -73 -8 -55 -14 -91 -19 -127 -3 -16 -7 -48 -11 -73 -6 -50 -16 -117
-20 -141 -2 -9 -6 -40 -10 -70 -3 -30 -8 -65 -10 -79 -2 -14 -7 -50 -10 -80
-4 -30 -10 -84 -15 -119 -5 -35 -8 -67 -8 -70 2 -6 -12 -134 -17 -161 -2 -9
-6 -60 -10 -115 -4 -55 -9 -116 -11 -135 -26 -242 -26 -1056 0 -1310 2 -19 7
-71 11 -115 3 -44 9 -96 12 -115 3 -19 7 -48 8 -65 6 -69 16 -154 25 -205 5
-30 11 -71 14 -90 5 -31 37 -217 52 -295 6 -36 67 -315 78 -362 70 -287 154
-569 224 -743 72 -181 163 -371 241 -503 25 -43 54 -92 64 -109 19 -33 131
-193 169 -243 386 -501 903 -862 1469 -1024 57 -17 115 -32 129 -35 14 -2 50
-10 80 -16 119 -23 128 -25 240 -36 135 -13 502 -6 530 11 3 1 28 6 55 9 208
28 508 145 697 272 326 219 546 545 628 929 31 146 39 220 40 380 0 164 -5
226 -36 425 -42 266 -170 696 -332 1116 -52 134 -182 455 -206 509 -8 17 -53
122 -101 235 -47 113 -93 219 -100 235 -84 186 -231 615 -323 940 -55 194
-164 620 -176 690 -3 17 -15 73 -26 125 -11 52 -23 106 -25 120 -3 14 -7 36
-10 50 -6 27 -64 359 -70 400 -2 14 -7 45 -10 70 -3 25 -8 57 -11 71 -2 15 -6
47 -9 70 -3 24 -8 58 -10 74 -2 17 -6 62 -10 100 -4 39 -8 84 -10 100 -32 282
-23 711 20 937 23 120 49 231 62 268 4 8 7 20 8 25 10 40 55 155 90 230 77
165 151 274 262 382 116 113 213 168 373 210 8 3 60 5 115 5 77 1 117 -4 174
-21 65 -20 217 -92 231 -110 3 -3 23 -19 45 -36 64 -46 166 -153 231 -240 56
-75 74 -101 136 -200 37 -59 122 -240 164 -347 20 -51 40 -102 44 -113 10 -22
38 -108 68 -205 17 -55 74 -270 88 -335 17 -75 52 -242 60 -285 2 -14 11 -59
20 -100 8 -41 19 -97 24 -125 11 -56 66 -389 74 -450 4 -22 8 -51 11 -65 2
-14 7 -47 10 -75 3 -27 8 -63 11 -80 3 -16 7 -46 8 -65 2 -19 7 -57 11 -85 12
-97 25 -201 30 -255 3 -30 8 -66 10 -80 2 -14 6 -59 10 -100 3 -41 8 -91 10
-110 2 -19 7 -69 10 -110 3 -41 8 -95 10 -120 3 -25 7 -81 10 -125 3 -44 7
-111 10 -150 42 -600 51 -1534 20 -2040 -1 -22 -5 -96 -9 -165 -9 -143 -12
-184 -21 -295 -4 -44 -8 -102 -11 -130 -2 -27 -6 -65 -8 -85 -3 -19 -8 -62
-11 -95 -11 -116 -28 -259 -40 -335 -2 -14 -9 -61 -15 -105 -14 -102 -18 -127
-30 -195 -5 -30 -12 -73 -16 -95 -3 -22 -14 -83 -25 -135 -11 -52 -22 -106
-24 -120 -3 -14 -20 -92 -39 -175 -145 -630 -358 -1150 -607 -1477 l-21 -28
69 -1 c484 -3 3246 0 3250 5 3 3 -8 40 -25 83 -26 64 -89 250 -98 288 -1 6
-14 48 -29 95 -22 74 -115 441 -129 510 -3 14 -21 104 -40 200 -19 96 -37 189
-40 205 -17 90 -58 348 -76 465 -19 131 -22 151 -35 255 -3 28 -10 82 -15 120
-13 100 -21 165 -25 205 -14 134 -17 168 -20 195 -2 17 -6 59 -9 95 -4 36 -9
90 -12 120 -2 30 -6 73 -9 95 -2 22 -7 76 -10 120 -3 44 -8 98 -10 120 -3 22
-7 83 -11 135 -3 52 -7 118 -9 145 -2 28 -6 100 -9 160 -4 61 -8 142 -11 180
-23 382 -38 950 -38 1500 -1 508 8 908 29 1345 17 382 23 485 40 695 3 44 7
98 9 120 5 73 17 220 20 255 2 19 6 70 10 112 3 43 8 86 9 95 2 10 7 50 10 88
8 84 15 149 21 190 2 17 7 62 11 100 3 39 8 79 10 90 3 11 6 41 9 66 2 26 6
60 9 75 2 16 8 54 11 84 4 30 9 63 11 72 1 9 10 68 19 130 18 123 19 133 41
258 8 47 17 99 20 115 2 17 7 41 9 55 3 14 8 36 10 50 3 14 8 41 11 60 3 19
24 116 46 215 21 99 41 189 43 200 4 16 93 341 112 408 7 23 0 22 -95 -13 -45
-16 -82 -28 -82 -25 0 2 -18 -2 -40 -10 -37 -13 -198 -46 -290 -59 -190 -27
-713 -28 -945 -1 -16 2 -64 7 -105 10 -41 4 -86 8 -100 10 -14 2 -54 6 -90 10
-36 4 -76 8 -90 10 -14 2 -54 7 -90 10 -36 4 -72 8 -80 10 -8 2 -46 6 -85 10
-38 4 -80 8 -93 10 -13 2 -53 7 -90 11 -37 3 -76 8 -86 10 -11 2 -52 6 -92 9
-39 3 -80 7 -90 9 -18 4 -99 11 -234 21 -562 43 -947 12 -1274 -102 -281 -98
-542 -281 -698 -490 -23 -32 -45 -60 -48 -63 -33 -30 -150 -244 -200 -365 -64
-154 -136 -397 -154 -519 -4 -21 -8 -41 -10 -45 -2 -3 -7 -31 -11 -61 -4 -30
-8 -57 -10 -60 -1 -3 -6 -32 -10 -65 -3 -33 -8 -76 -11 -95 -24 -212 -28 -286
-28 -605 -1 -268 5 -434 19 -575 2 -19 7 -68 10 -109 4 -41 9 -83 11 -94 2
-11 6 -45 9 -76 3 -31 8 -67 10 -81 3 -14 7 -43 11 -65 5 -41 8 -54 18 -115 3
-19 8 -46 10 -60 24 -153 95 -492 132 -635 3 -11 7 -29 9 -40 13 -58 91 -334
131 -458 99 -308 151 -442 334 -852 144 -322 239 -548 314 -750 21 -55 42
-109 47 -120 34 -80 179 -547 209 -675 15 -64 70 -325 75 -355 3 -16 7 -41 10
-55 2 -14 7 -47 10 -75 3 -27 8 -70 11 -95 3 -25 7 -101 8 -170 5 -230 -20
-383 -86 -510 -160 -314 -505 -189 -804 293 -139 224 -269 541 -364 887 -23
83 -116 461 -124 500 -3 14 -21 102 -40 195 -42 202 -37 178 -81 435 -30 175
-58 360 -81 525 -3 22 -7 51 -9 65 -6 39 -24 177 -50 390 -8 69 -17 143 -20
165 -5 36 -16 135 -30 265 -3 25 -8 63 -10 85 -7 53 -12 98 -20 170 -3 33 -8
71 -10 85 -2 14 -6 52 -10 85 -3 33 -8 71 -10 85 -2 14 -6 50 -9 80 -4 30 -8
73 -11 95 -3 22 -7 60 -10 85 -6 44 -10 77 -20 143 -2 19 -7 60 -10 93 -7 64
-13 111 -20 134 -2 8 -6 42 -10 75 -3 33 -8 67 -10 75 -2 8 -7 35 -10 60 -3
25 -7 56 -9 70 -3 14 -10 59 -16 100 -7 41 -14 82 -15 90 -2 8 -10 53 -19 100
-8 47 -18 103 -21 125 -4 22 -8 48 -11 57 -3 10 -7 30 -10 45 -6 41 -34 167
-56 258 -11 44 -22 89 -24 100 -16 86 -117 432 -156 535 -11 30 -21 60 -22 65
-14 75 -225 543 -308 685 -371 630 -827 1068 -1343 1289 -106 45 -300 105
-375 115 -25 3 -56 9 -70 12 -26 7 -346 14 -352 8z"/>
<path d="M3950 26974 c81 -70 122 -118 192 -224 113 -171 263 -496 360 -783
33 -98 33 -99 13 -115 -41 -34 -176 -194 -259 -305 -97 -130 -256 -375 -256
-394 0 -7 -4 -13 -10 -13 -5 0 -10 -5 -10 -10 0 -6 -11 -27 -24 -48 -30 -48
-179 -340 -233 -457 -108 -233 -221 -510 -328 -799 -88 -238 -280 -812 -315
-941 -5 -16 -32 -106 -60 -200 -29 -93 -58 -192 -65 -220 -8 -27 -28 -97 -45
-155 -50 -168 -340 -1231 -355 -1300 -2 -8 -29 -112 -60 -230 -31 -118 -58
-222 -61 -230 -5 -21 -108 -409 -134 -505 -396 -1477 -667 -2281 -985 -2928
-41 -84 -85 -170 -98 -192 -75 -134 -98 -171 -168 -275 -228 -342 -467 -559
-724 -655 -97 -37 -173 -52 -313 -64 -17 -1 29 -85 107 -195 55 -78 198 -231
256 -274 132 -97 168 -120 284 -177 142 -70 329 -121 521 -142 119 -13 380 -7
470 12 13 2 42 7 65 11 22 3 67 12 100 20 33 8 67 16 76 19 174 40 462 163
643 273 545 333 970 851 1219 1487 58 149 114 317 133 400 1 6 11 46 22 90 23
93 68 335 77 415 4 30 8 66 10 80 30 194 35 692 10 950 -2 19 -6 68 -10 108
-4 41 -8 81 -9 90 -2 9 -7 49 -12 87 -4 39 -8 72 -9 75 -1 3 -5 30 -9 60 -4
30 -11 78 -16 105 -10 50 -14 74 -25 149 -4 21 -9 48 -11 60 -2 11 -7 36 -10
55 -3 18 -8 43 -10 55 -2 11 -6 35 -9 51 -9 54 -23 131 -50 275 -9 47 -20 110
-25 140 -12 65 -16 85 -26 125 -6 25 9 13 97 -75 195 -198 334 -312 750 -616
151 -110 316 -232 366 -270 235 -180 420 -352 625 -581 90 -100 282 -368 376
-523 67 -113 262 -488 262 -506 0 -16 113 -234 158 -304 260 -406 666 -649
1192 -715 25 -3 61 -8 80 -12 19 -3 360 -7 757 -8 l721 -3 -40 111 c-199 552
-367 1134 -507 1752 -25 111 -99 451 -106 485 -10 51 -37 186 -41 210 -7 34
-61 318 -68 355 -3 17 -10 55 -16 85 -6 30 -12 66 -15 80 -11 57 -26 143 -30
168 -1 15 -12 79 -24 142 -20 116 -26 150 -35 205 -3 17 -19 116 -36 220 -38
231 -41 244 -44 275 -2 14 -6 39 -9 55 -4 17 -9 50 -12 75 -3 25 -10 68 -15
95 -5 28 -16 101 -25 163 -9 62 -18 123 -21 135 -2 12 -6 40 -9 62 -3 22 -7
49 -9 60 -2 11 -7 43 -10 70 -10 74 -16 111 -31 205 -2 14 -16 106 -30 205
-14 99 -27 191 -30 205 -2 14 -9 61 -15 105 -16 111 -20 136 -25 165 -3 14 -7
43 -10 65 -4 36 -9 70 -20 145 -3 14 -9 59 -15 100 -20 134 -38 251 -45 300
-2 14 -9 57 -15 95 -6 39 -13 82 -15 96 -3 14 -7 41 -9 60 -3 19 -7 48 -10 64
-9 55 -47 290 -51 315 -3 23 -39 230 -50 290 -2 14 -16 90 -30 170 -15 80 -40
213 -57 295 -17 83 -32 161 -35 175 -74 372 -203 832 -310 1104 -130 331 -315
596 -543 778 -41 33 -83 66 -93 74 -9 8 -20 14 -23 14 -3 0 -24 13 -47 29
-195 134 -565 264 -927 326 -39 6 -150 23 -200 30 -25 3 -56 8 -70 10 -14 2
-79 9 -145 15 -66 6 -138 12 -160 15 -37 4 -88 7 -345 21 -52 2 -259 7 -460
10 l-365 6 45 -38z m810 -1859 c28 -109 54 -206 56 -215 10 -41 45 -187 49
-204 2 -10 14 -59 26 -110 11 -50 25 -104 30 -121 5 -16 13 -52 19 -80 13 -69
16 -82 33 -156 9 -35 29 -127 46 -204 27 -127 32 -155 45 -220 3 -11 25 -123
51 -250 26 -126 49 -241 51 -255 2 -14 13 -68 23 -120 11 -52 24 -124 31 -160
6 -36 16 -85 21 -110 4 -25 13 -72 19 -105 5 -33 12 -71 15 -85 6 -28 8 -39
29 -160 9 -47 17 -94 19 -105 5 -25 15 -80 22 -125 3 -19 10 -59 16 -88 6 -29
12 -66 14 -83 3 -17 7 -38 9 -48 3 -9 8 -32 10 -51 2 -19 12 -78 21 -130 9
-52 18 -106 20 -120 3 -14 7 -36 9 -50 3 -14 8 -43 11 -65 3 -22 7 -51 10 -65
7 -37 13 -75 30 -180 9 -52 18 -107 20 -122 3 -16 7 -43 10 -60 3 -18 7 -44
10 -58 8 -40 16 -93 20 -120 2 -14 6 -38 9 -55 3 -16 8 -48 10 -70 3 -22 8
-51 11 -65 2 -13 7 -42 10 -65 6 -34 48 -302 60 -375 3 -21 37 -228 59 -370 3
-19 13 -80 21 -135 17 -111 21 -135 35 -215 5 -30 12 -73 16 -95 3 -22 11 -73
18 -113 7 -40 10 -74 8 -77 -3 -2 -28 16 -56 42 -90 81 -520 393 -541 393 -3
0 -11 5 -18 11 -7 5 -48 33 -92 62 -44 28 -159 103 -255 166 -96 64 -179 118
-185 120 -5 2 -12 7 -15 11 -3 3 -27 22 -55 40 -203 140 -471 385 -588 538
-216 280 -329 583 -372 992 -13 126 -2 570 20 785 16 162 18 174 31 280 11 94
56 348 79 450 14 61 28 121 31 135 29 139 133 467 211 665 112 283 314 666
481 910 111 161 207 284 213 272 4 -7 30 -102 59 -212z"/>
<path d="M21010 26953 c98 -203 185 -571 245 -1043 4 -25 8 -56 10 -70 2 -14
6 -50 10 -80 3 -30 8 -71 10 -90 3 -19 7 -66 10 -105 3 -38 7 -81 10 -95 2
-14 7 -63 10 -110 3 -47 8 -101 10 -120 2 -19 7 -80 10 -135 3 -55 8 -120 10
-145 2 -25 7 -99 11 -165 4 -66 8 -138 9 -160 9 -150 21 -486 31 -890 13 -547
7 -1809 -11 -2275 -2 -47 -6 -179 -10 -295 -4 -115 -9 -241 -10 -280 -2 -38
-6 -142 -10 -230 -3 -88 -8 -180 -10 -205 -2 -25 -7 -108 -11 -185 -10 -215
-12 -243 -18 -350 -4 -55 -9 -136 -12 -180 -2 -44 -7 -107 -9 -140 -3 -33 -7
-91 -10 -130 -8 -122 -15 -218 -20 -270 -2 -27 -7 -86 -10 -130 -3 -44 -8 -94
-10 -110 -2 -17 -7 -67 -10 -110 -4 -44 -8 -96 -10 -115 -2 -19 -6 -66 -10
-105 -4 -38 -8 -81 -10 -95 -2 -14 -6 -54 -10 -90 -3 -36 -8 -81 -10 -100 -2
-19 -7 -60 -10 -90 -8 -73 -16 -143 -40 -325 -8 -66 -20 -151 -26 -190 -6 -38
-12 -81 -14 -95 -19 -122 -48 -285 -77 -425 -31 -156 -90 -370 -112 -414 -8
-14 -17 -36 -20 -48 -6 -18 -4 -21 12 -18 10 2 43 6 73 10 30 3 70 8 89 10 19
3 64 7 100 10 36 3 81 7 100 10 167 22 811 34 1070 21 52 -3 145 -8 205 -11
61 -3 130 -8 155 -10 25 -2 87 -7 138 -10 52 -4 101 -8 110 -10 10 -1 53 -6
97 -10 44 -3 94 -8 110 -10 17 -2 57 -7 90 -10 33 -3 96 -10 140 -16 44 -5 96
-12 115 -14 36 -4 177 -23 240 -31 34 -4 125 -18 205 -29 22 -4 54 -8 70 -10
17 -3 46 -7 65 -10 19 -3 53 -8 75 -10 22 -3 51 -8 65 -10 14 -3 45 -7 70 -10
24 -3 101 -15 170 -26 69 -11 136 -22 150 -24 14 -2 48 -7 75 -10 28 -4 57 -8
65 -10 8 -2 35 -7 60 -10 25 -3 56 -8 70 -10 95 -16 422 -62 500 -71 30 -3 57
-8 60 -9 3 -2 39 -6 80 -10 41 -4 77 -8 80 -10 3 -2 43 -6 90 -10 47 -4 92 -8
100 -10 34 -6 195 -20 375 -32 213 -15 715 -8 825 11 14 3 48 7 75 11 318 37
691 175 924 343 162 115 315 280 393 422 115 210 134 465 56 750 -52 191 -168
433 -351 735 -49 81 -311 471 -318 473 -5 2 -9 7 -9 12 0 5 -59 93 -132 197
-508 727 -759 1148 -931 1563 -99 239 -145 385 -203 645 -2 11 -7 36 -10 55
-3 19 -9 60 -14 90 -25 144 -33 451 -16 615 6 67 43 279 60 350 11 47 79 263
91 290 7 17 30 70 51 119 91 216 249 483 406 684 27 35 48 65 46 67 -9 9 -280
71 -418 96 -120 21 -162 27 -228 34 -26 3 -60 7 -77 10 -158 26 -733 26 -835
0 -8 -2 -37 -6 -65 -10 -387 -47 -794 -214 -1075 -440 -311 -250 -519 -617
-557 -985 -20 -197 -7 -364 47 -610 29 -133 166 -429 271 -590 148 -224 347
-444 589 -651 133 -113 450 -332 962 -663 397 -257 691 -482 898 -687 134
-133 143 -143 239 -264 97 -122 149 -201 237 -365 47 -87 118 -286 130 -364 3
-22 8 -44 10 -47 17 -28 25 -287 11 -384 -47 -339 -238 -637 -543 -844 -134
-90 -359 -185 -514 -216 -8 -2 -26 -6 -40 -9 -86 -19 -155 -25 -315 -26 -400
-3 -766 126 -1140 401 -132 98 -360 326 -467 469 -201 268 -404 661 -545 1055
-55 152 -65 180 -67 190 -1 6 -19 62 -39 125 -46 146 -114 394 -133 485 -1 6
-9 37 -17 70 -13 50 -25 105 -52 235 -5 24 -46 233 -50 255 -12 64 -45 267
-50 305 -3 25 -7 56 -10 70 -3 14 -7 41 -9 60 -3 19 -7 49 -10 65 -2 17 -10
75 -16 130 -6 55 -13 116 -15 135 -3 19 -7 60 -10 90 -12 136 -16 177 -20 210
-2 19 -7 80 -11 135 -3 55 -8 116 -9 135 -13 147 -20 430 -20 800 0 371 3 509
20 795 3 54 15 210 20 265 2 25 7 74 10 110 3 36 8 81 10 100 2 19 7 60 10 90
3 30 8 71 10 90 3 19 7 55 10 80 4 25 8 56 10 70 2 14 9 61 15 105 12 83 16
113 25 165 3 17 7 45 10 63 20 117 42 231 89 462 14 66 90 370 106 425 11 36
33 112 50 170 61 206 187 557 250 695 10 22 36 81 58 130 145 321 345 651 549
903 l83 102 -1744 0 -1744 0 28 -57z"/>
<path d="M14037 16074 c-1 -1 -45 -4 -97 -7 -112 -7 -151 -12 -290 -39 -101
-19 -264 -60 -305 -77 -11 -5 -63 -26 -115 -46 -160 -64 -325 -157 -462 -262
-32 -24 -58 -47 -58 -51 0 -4 22 -17 49 -28 130 -57 325 -220 432 -359 153
-199 271 -436 366 -734 53 -167 118 -441 138 -581 3 -25 8 -52 10 -60 4 -14
12 -69 20 -133 34 -254 37 -286 50 -447 4 -47 8 -101 10 -120 4 -43 16 -270
21 -410 5 -127 4 -779 0 -940 -6 -175 -16 -447 -21 -525 -3 -38 -7 -119 -10
-180 -3 -60 -7 -144 -10 -185 -3 -41 -7 -111 -10 -155 -3 -44 -7 -107 -10
-140 -2 -33 -7 -100 -10 -150 -3 -49 -7 -112 -10 -140 -3 -27 -7 -86 -10 -130
-8 -112 -14 -189 -20 -265 -5 -67 -10 -140 -20 -270 -3 -41 -7 -103 -10 -137
-3 -35 -7 -93 -10 -130 -3 -38 -7 -95 -10 -128 -2 -33 -7 -100 -10 -150 -3
-49 -7 -117 -10 -150 -26 -361 -26 -1050 0 -1305 3 -25 7 -72 11 -105 14 -143
23 -220 28 -255 3 -14 10 -59 16 -100 7 -41 14 -82 15 -90 2 -8 13 -60 24
-115 93 -462 262 -868 484 -1155 46 -60 189 -207 248 -256 134 -110 382 -229
522 -249 23 -4 45 -9 48 -11 29 -18 321 -25 439 -11 101 12 264 52 380 92 90
32 343 149 405 187 234 148 329 216 490 358 418 368 743 806 1040 1403 41 81
75 151 76 155 1 4 19 45 40 91 22 46 39 88 39 93 0 4 4 16 10 26 71 130 279
719 394 1117 15 50 31 104 36 120 16 49 114 434 124 487 2 13 12 55 21 93 9
39 18 77 20 85 2 8 10 47 19 85 9 39 18 81 20 95 3 14 16 80 30 147 14 68 28
144 32 170 3 27 8 51 10 54 4 7 7 26 34 194 30 185 30 187 35 215 2 14 7 49
10 79 4 30 8 62 10 71 2 9 6 41 10 71 3 30 10 81 15 114 5 33 12 89 15 125 3
36 8 79 10 95 11 80 16 130 20 187 3 35 7 86 10 113 5 55 15 177 20 258 27
386 27 1020 1 1287 -2 19 -7 69 -10 110 -7 72 -10 103 -21 200 -3 25 -7 68
-10 95 -3 28 -8 66 -10 85 -2 19 -7 58 -10 85 -2 28 -7 73 -11 100 -46 385
-35 805 28 1040 5 22 12 49 14 60 2 11 18 63 35 115 169 513 528 788 900 690
253 -66 481 -310 621 -665 50 -126 95 -287 123 -435 4 -22 28 -185 40 -275 22
-163 22 -692 0 -806 -2 -8 -6 -53 -10 -100 -4 -46 -8 -86 -10 -89 -1 -3 -6
-36 -9 -75 -4 -38 -9 -77 -11 -85 -2 -8 -7 -35 -10 -60 -6 -42 -20 -138 -31
-205 -2 -16 -11 -64 -19 -105 -8 -41 -17 -86 -19 -100 -2 -14 -12 -58 -20 -97
-9 -40 -18 -87 -21 -105 -3 -17 -8 -35 -11 -39 -3 -5 -7 -21 -9 -36 -2 -16
-16 -75 -30 -133 -15 -58 -28 -112 -30 -120 -1 -8 -8 -35 -15 -60 -7 -25 -13
-52 -15 -60 -2 -8 -29 -100 -59 -205 -31 -104 -58 -197 -60 -205 -19 -72 -189
-583 -236 -705 -10 -27 -37 -102 -60 -165 -48 -132 -156 -415 -170 -445 -5
-11 -32 -78 -60 -150 -28 -71 -55 -139 -60 -150 -5 -11 -39 -92 -75 -180 -37
-88 -77 -184 -91 -213 -13 -29 -24 -55 -24 -58 0 -4 -16 -40 -35 -81 -19 -41
-35 -77 -35 -79 0 -4 -175 -399 -223 -504 -14 -30 -44 -98 -66 -150 -23 -52
-46 -103 -51 -112 -6 -10 -10 -22 -10 -28 0 -6 -9 -29 -19 -53 -95 -207 -238
-702 -275 -952 -31 -199 -33 -220 -42 -345 -11 -159 -5 -465 11 -549 2 -10 6
-42 10 -72 6 -45 25 -138 60 -296 11 -49 79 -232 120 -323 155 -344 408 -640
730 -852 159 -105 308 -176 495 -238 258 -85 434 -110 730 -106 118 2 224 6
235 9 11 2 40 8 65 11 176 24 375 82 538 157 35 16 65 29 67 29 2 0 47 25 100
55 108 61 188 116 288 198 l67 55 -77 45 c-109 63 -191 125 -276 210 -77 75
-171 189 -203 245 -10 17 -22 32 -26 32 -4 0 -8 5 -8 10 0 6 -12 29 -27 53
-50 78 -150 291 -196 417 -95 257 -168 548 -216 855 -24 159 -28 186 -36 250
-3 28 -8 64 -10 80 -2 17 -7 62 -10 100 -3 39 -8 81 -10 95 -2 14 -7 63 -10
110 -4 47 -8 112 -11 145 -30 417 -34 1193 -9 1775 9 222 16 371 20 420 2 30
7 107 10 170 3 63 8 144 10 180 2 36 7 103 10 150 8 135 15 230 20 295 3 33 7
96 10 140 3 44 7 103 10 130 3 28 7 91 10 140 3 50 8 113 10 140 3 28 7 86 11
130 3 44 7 100 9 125 2 25 6 86 9 135 4 50 8 113 11 140 2 28 7 93 11 145 3
52 7 115 9 140 2 25 7 104 10 175 4 72 8 146 10 165 5 54 18 453 18 565 0 103
-12 456 -18 535 -4 45 -13 148 -20 225 -8 83 -16 151 -20 170 -2 11 -7 43 -10
70 -11 85 -44 264 -71 380 -15 61 -27 115 -28 120 -16 72 -89 294 -131 400
-186 461 -452 780 -792 949 -86 43 -164 73 -212 82 -13 3 -33 10 -43 15 -11 6
-22 8 -25 5 -3 -2 -16 -1 -29 4 -80 31 -359 34 -539 6 -296 -45 -665 -215
-980 -450 -250 -187 -515 -450 -714 -711 -17 -22 -34 -44 -39 -50 -21 -26
-133 -188 -173 -250 -81 -125 -88 -137 -222 -375 -146 -260 -354 -742 -494
-1145 -66 -192 -172 -529 -208 -660 -38 -140 -109 -416 -126 -490 -22 -95 -86
-379 -93 -415 -7 -35 -64 -339 -71 -375 -3 -16 -8 -46 -11 -65 -2 -19 -7 -46
-10 -60 -13 -71 -12 -66 -34 -205 -5 -33 -12 -82 -15 -110 -4 -27 -8 -57 -10
-65 -2 -8 -7 -42 -10 -75 -4 -33 -8 -67 -10 -75 -2 -8 -7 -44 -10 -80 -4 -36
-9 -74 -11 -85 -2 -11 -6 -54 -9 -95 -3 -41 -8 -86 -10 -100 -3 -14 -7 -56
-10 -95 -3 -38 -7 -90 -10 -115 -42 -410 -52 -1103 -20 -1463 2 -29 7 -83 10
-122 3 -38 8 -86 10 -105 2 -19 7 -62 10 -95 3 -33 8 -73 10 -90 2 -16 7 -57
10 -90 5 -56 11 -104 20 -180 2 -16 7 -66 11 -110 3 -44 8 -89 11 -100 3 -11
6 -128 8 -260 3 -223 0 -280 -29 -485 -4 -29 -22 -118 -41 -201 -2 -9 -17 -57
-34 -108 -152 -454 -451 -719 -786 -697 -166 10 -315 85 -452 227 -175 181
-322 497 -389 834 -2 11 -6 31 -9 45 -8 37 -33 216 -39 285 -15 149 -17 214
-16 425 2 221 3 256 14 395 6 65 10 102 22 215 6 54 34 252 39 283 3 11 7 39
10 62 3 22 8 47 11 56 2 9 7 32 9 50 4 28 36 190 50 249 2 8 13 56 24 105 29
131 103 407 156 585 80 269 260 795 311 907 8 17 14 34 14 38 0 4 6 21 14 38
7 18 40 97 71 177 32 80 66 163 76 185 10 22 30 69 45 105 14 36 34 83 45 105
10 22 44 101 77 175 97 221 184 405 374 790 243 491 326 682 405 930 29 92 92
324 99 365 3 17 11 57 19 90 7 33 16 84 20 114 4 30 8 63 10 73 25 126 24 575
0 668 -2 8 -7 35 -10 60 -24 172 -109 424 -198 590 -226 419 -611 740 -1091
909 -84 30 -254 77 -314 87 -15 3 -34 7 -42 9 -8 2 -37 7 -65 10 -27 4 -61 8
-75 11 -39 7 -348 22 -353 18z"/>
<path d="M26777 15863 c-1 0 -85 -4 -187 -8 -198 -6 -286 -11 -390 -20 -36 -3
-94 -7 -130 -10 -90 -6 -290 -30 -350 -41 -14 -2 -44 -7 -66 -10 -40 -5 -60
-8 -114 -19 -14 -2 -41 -7 -60 -10 -19 -3 -53 -11 -75 -17 -22 -5 -44 -11 -50
-12 -73 -15 -216 -55 -285 -81 -25 -9 -49 -17 -55 -19 -96 -29 -320 -141 -425
-214 -448 -309 -686 -761 -910 -1727 -36 -154 -103 -475 -115 -550 -3 -16 -10
-52 -15 -80 -6 -27 -12 -61 -15 -75 -3 -14 -7 -43 -10 -65 -3 -22 -7 -47 -10
-55 -2 -8 -7 -30 -10 -49 -59 -348 -75 -443 -80 -481 -3 -25 -8 -52 -10 -60
-5 -19 -10 -50 -30 -190 -9 -63 -20 -137 -25 -165 -5 -27 -12 -70 -15 -95 -13
-93 -16 -117 -30 -200 -8 -47 -17 -107 -20 -135 -4 -27 -8 -61 -10 -75 -3 -14
-7 -43 -10 -65 -13 -87 -16 -101 -20 -125 -2 -14 -7 -46 -10 -72 -2 -26 -7
-58 -9 -70 -3 -13 -8 -45 -11 -73 -3 -27 -8 -59 -10 -70 -3 -11 -7 -36 -9 -55
-4 -32 -32 -222 -41 -280 -3 -24 -12 -84 -21 -145 -2 -16 -6 -41 -9 -55 -2
-14 -7 -45 -10 -70 -3 -25 -12 -85 -20 -135 -8 -49 -17 -108 -20 -130 -3 -23
-7 -50 -9 -60 -2 -11 -9 -56 -15 -100 -7 -44 -16 -102 -21 -130 -5 -27 -12
-68 -15 -90 -3 -22 -9 -65 -15 -95 -5 -30 -11 -73 -14 -95 -3 -22 -8 -51 -11
-65 -4 -22 -13 -79 -20 -130 -1 -8 -5 -31 -9 -50 -8 -44 -15 -85 -22 -130 -3
-19 -7 -46 -10 -60 -2 -14 -7 -41 -9 -60 -3 -19 -12 -66 -20 -105 -7 -38 -17
-90 -20 -115 -4 -25 -15 -90 -25 -145 -11 -55 -22 -113 -24 -130 -3 -16 -28
-145 -56 -285 -28 -140 -52 -266 -55 -280 -3 -14 -7 -35 -10 -47 -8 -34 -14
-63 -25 -118 -19 -94 -28 -133 -34 -153 -3 -9 -8 -30 -10 -47 -10 -56 -96
-419 -147 -615 -79 -310 -162 -596 -241 -835 -16 -49 -31 -97 -33 -105 -5 -18
-88 -252 -105 -295 -6 -16 -13 -37 -15 -45 -2 -8 -11 -32 -19 -53 -16 -36 -16
-37 6 -38 96 -4 1289 0 1348 4 221 16 400 50 574 107 433 145 740 429 936 865
313 700 652 1155 1180 1586 107 88 248 193 539 404 313 226 466 352 656 537
71 70 130 126 132 125 1 -2 -2 -20 -7 -42 -10 -45 -14 -65 -35 -185 -8 -47
-17 -95 -19 -106 -2 -12 -7 -39 -11 -60 -4 -22 -9 -48 -11 -59 -4 -26 -13 -73
-19 -105 -3 -14 -8 -38 -10 -55 -9 -53 -15 -89 -20 -115 -3 -14 -10 -52 -15
-85 -5 -33 -12 -69 -14 -80 -3 -17 -15 -91 -31 -193 -2 -13 -7 -53 -11 -90 -3
-37 -8 -69 -9 -72 -2 -3 -6 -45 -10 -95 -4 -49 -8 -100 -10 -113 -2 -13 -7
-89 -11 -170 -19 -394 3 -735 71 -1102 57 -311 186 -687 333 -970 362 -699
960 -1220 1632 -1423 228 -69 384 -92 620 -92 155 0 263 9 320 25 16 5 30 7
30 5 0 -3 11 0 26 5 14 6 39 12 57 16 53 9 173 52 265 95 207 96 423 278 555
466 39 56 109 175 105 177 -2 1 -46 8 -99 14 -190 23 -378 105 -536 234 -36
30 -211 204 -243 243 -244 295 -513 798 -715 1340 -12 33 -44 119 -70 190 -26
72 -51 139 -55 150 -43 101 -238 725 -366 1175 -57 201 -109 383 -116 405 -6
22 -13 47 -15 57 -1 9 -23 92 -49 184 -25 93 -48 175 -50 184 -2 8 -17 67 -34
130 -17 63 -35 131 -39 151 -4 19 -10 40 -14 45 -3 6 -8 21 -10 35 -5 22 -19
78 -129 494 -22 83 -42 157 -44 165 -2 8 -20 76 -39 150 -20 74 -38 142 -40
150 -7 29 -174 637 -213 775 -273 965 -519 1686 -770 2260 -137 314 -373 758
-488 918 -19 26 -34 49 -34 52 0 18 -225 299 -312 390 -26 28 -48 56 -48 63 0
14 102 294 131 358 10 22 27 64 38 92 36 90 123 265 179 357 70 115 136 199
215 270 l62 56 -268 -3 c-148 -2 -269 -4 -270 -5z m-190 -1750 c79 -102 214
-302 293 -433 68 -114 209 -385 254 -490 16 -36 34 -78 42 -95 87 -195 231
-652 278 -885 32 -160 39 -195 51 -270 4 -25 9 -52 10 -60 3 -14 19 -123 31
-209 2 -18 7 -63 9 -100 3 -36 7 -79 10 -96 2 -16 7 -79 10 -140 4 -60 8 -135
10 -165 5 -80 5 -428 0 -475 -2 -22 -7 -65 -10 -95 -3 -30 -10 -77 -15 -105
-5 -27 -11 -61 -14 -75 -17 -100 -78 -283 -132 -396 -130 -273 -307 -486 -594
-718 -169 -136 -285 -216 -695 -481 -310 -200 -442 -293 -612 -432 -57 -46
-106 -83 -109 -83 -3 0 -3 8 0 18 3 9 8 35 11 57 3 22 8 51 10 65 3 14 7 39 9
55 3 17 21 129 41 250 41 251 42 256 50 310 3 23 7 50 9 62 3 11 7 38 10 59 3
22 8 50 11 64 2 14 7 43 10 65 3 22 10 65 15 95 5 30 12 73 15 95 2 22 7 51
10 65 2 14 11 68 20 120 8 52 17 104 19 115 2 11 7 43 10 70 4 28 11 77 17
110 14 76 13 69 44 260 14 88 28 174 31 190 3 17 7 41 9 55 33 200 63 375 70
410 3 14 7 41 10 60 3 19 11 71 19 115 9 44 18 94 20 110 3 17 8 41 11 55 5
29 11 63 25 145 5 33 12 69 14 80 8 42 36 192 41 225 3 19 19 103 35 185 29
149 57 297 66 345 2 14 7 36 10 50 3 14 8 35 10 48 8 45 13 71 53 267 23 110
43 207 46 215 2 8 7 29 9 45 3 17 14 68 25 115 30 134 83 374 86 390 2 8 11
44 20 80 9 36 19 76 22 90 17 94 169 670 177 670 2 0 30 -35 63 -77z"/>
</g>
</svg>
